<?xml version="1.0" encoding="utf-8"?>
<!-- Generator: Adobe Illustrator 23.1.1, SVG Export Plug-In . SVG Version: 6.00 Build 0)  -->
<svg version="1.1" id="Layer_1" xmlns="http://www.w3.org/2000/svg" xmlns:xlink="http://www.w3.org/1999/xlink" x="0px" y="0px"
	 viewBox="0 0 384 512" style="enable-background:new 0 0 384 512;" xml:space="preserve">
<style type="text/css">
	.st0{fill:#F9F9F9;}
	.st1{fill:#45B39D;}
</style>
<circle class="st0" cx="192" cy="186.7" r="122.6"/>
<path class="st1" d="M172.3,501.7C27,291,0,269.4,0,192C0,86,86,0,192,0s192,86,192,192c0,77.4-27,99-172.3,309.7
	C202.2,515.4,181.8,515.4,172.3,501.7L172.3,501.7z M192,311.4c68.9,0,124.7-55.8,124.7-124.7S260.9,62,192,62
	S67.3,117.8,67.3,186.7S123.1,311.4,192,311.4z M186.8,251.4l-85.9,0.2l0,0l2.7,3.4l8.8,10.6l10.1,9.5l11.4,8l12.5,6.4l13.1,4.8
	l13.5,3.1l13.8,1.3l14-0.4l13.9-2.1l13.6-3.8l12.9-5.4l11.9-7.1l11.3-8l8.2-7.9l1.9-2.1l8.4-10.8l-86.5,0.2L186.8,251.4z M221,250.7
	V234l54.1-28.3l-0.7-1l-6.8-11.7l-5.9-12.1l-4.8-12.6l-3.2-13l-1.6-13.3l-0.5-13.4l0.2-13.4L219,130.7l-0.7-30.9h-4l-2.1,150.9
	L221,250.7z M178.3,250.9v-15l48.5-25.4l-0.6-0.9l-6.1-10.5l-5.3-10.9l-4.3-11.3l-2.9-11.7l-1.4-12l-0.4-12l0.2-12.1l-29.5,13.9
	l-0.6-27.7h-3.6l-1.9,135.5L178.3,250.9z M120.9,249.4l-0.7-11.5l-0.1-11.5l1.1-11.4l2.8-11.1l4.2-10.8l5.3-10.3l6.3-9.7l7.4-8.8
	l8.6-7.6l9.5-6.6l6-3.9l-2.5,8.7l-2.5,8.8l-3.6,10.3l-2.1,13l0.3,10.8l2.1,9.9l3.1,9.7l3.6,9.8L120.9,249.4"/>
</svg>
